<svg width="24" height="24" viewBox="0 0 24 24" fill="none" xmlns="http://www.w3.org/2000/svg">
<path fill-rule="evenodd" clip-rule="evenodd" d="M15.1707 2.67706C15.3542 2.60023 15.5511 2.56067 15.75 2.56067C15.9489 2.56067 16.1458 2.60023 16.3293 2.67706C16.5118 2.75346 16.6773 2.86519 16.8164 3.00582L16.8188 3.00816L20.9919 7.18129L20.9943 7.18364C21.1349 7.32273 21.2466 7.48826 21.323 7.67071C21.3998 7.85419 21.4394 8.05112 21.4394 8.25004C21.4394 8.44896 21.3998 8.64589 21.323 8.82937C21.2466 9.01182 21.1349 9.17735 20.9943 9.31643L20.9919 9.31879L9.53033 20.7804C9.38968 20.921 9.19891 21 9 21H4.5C4.10218 21 3.72065 20.842 3.43934 20.5607C3.15804 20.2794 3 19.8979 3 19.5V15.3105M15.1707 2.67706C14.9882 2.75346 14.8227 2.86519 14.6836 3.00582L15.1707 2.67706ZM19.9353 8.246L15.75 4.06068L15.746 4.06476L4.5 16V19.5H8.68934L19.9394 8.25002L19.9353 8.246Z" fill="#535353"/>
<path fill-rule="evenodd" clip-rule="evenodd" d="M12.5 5.50001C12.7929 5.20712 12.9874 5.17679 13.2803 5.46968L18.5303 10.7197C18.8232 11.0126 18.7929 11.2071 18.5 11.5C18.2071 11.7929 17.7626 12.0732 17.4697 11.7803L12.2197 6.53034C11.9268 6.23745 12.2071 5.7929 12.5 5.50001Z" fill="#535353"/>
<path fill-rule="evenodd" clip-rule="evenodd" d="M8.25 20.25C8.25 19.8358 8.58579 19.5 9 19.5H20.25C20.6642 19.5 21 19.8358 21 20.25C21 20.6642 20.6642 21 20.25 21H9C8.58579 21 8.25 20.6642 8.25 20.25Z" fill="#535353"/>
</svg>
