<svg width="33" height="29" viewBox="0 0 33 29" fill="none" xmlns="http://www.w3.org/2000/svg">
<path fill-rule="evenodd" clip-rule="evenodd" d="M33 12.6175V24.3193C33 26.8632 30.8208 29 28.2264 29H4.77358C2.17925 29 0 26.8632 0 24.3193V9.87018C0 7.32632 2.17925 5.18947 4.77358 5.18947H9.33962V3.45965C9.33962 1.52632 10.8962 0 12.8679 0H20.1321C22.1038 0 23.6604 1.52632 23.6604 3.45965V5.18947H28.2264C30.8208 5.18947 33 7.32632 33 9.87018V12.6175ZM4.77358 6.61403H10.7925V3.45965C10.7925 2.34035 11.7264 1.42456 12.8679 1.42456H20.1321C21.2736 1.42456 22.2075 2.34035 22.2075 3.45965V6.61403H28.2264C30.0943 6.61403 31.5472 8.14035 31.5472 9.87018V12.7193H22.8302C21.4811 10.6842 19.0943 9.46316 16.5 9.46316C13.9057 9.46316 11.5189 10.6842 10.1698 12.7193H1.45283V9.87018C1.45283 8.14035 3.00943 6.61403 4.77358 6.61403ZM31.5472 14.0421V24.3193C31.5472 26.0491 30.0943 27.4737 28.2264 27.4737H4.77358C3.00943 27.4737 1.45283 26.0491 1.45283 24.3193V14.0421H9.33962C8.92453 14.9579 8.71698 15.9754 8.71698 17.0947C8.71698 21.2667 12.2453 24.7263 16.5 24.7263C20.7547 24.7263 24.283 21.2667 24.283 17.0947C24.283 15.9754 24.0755 14.9579 23.6604 14.0421H31.5472ZM14.6321 3.25614H18.3679C20.5472 3.25614 20.5472 6.41053 18.3679 6.41053H14.6321C12.4528 6.41053 12.4528 3.25614 14.6321 3.25614ZM22 14.0421L21.6887 13.5333C20.4434 11.9053 18.5755 10.8877 16.5 10.8877C14.4245 10.8877 12.5566 11.9053 11.3113 13.5333L11 14.0421L10.6887 14.6526C10.3774 15.3649 10.1698 16.2807 10.1698 17.0947C10.1698 20.4526 13.0755 23.3018 16.5 23.3018C20.0283 23.3018 22.8302 20.4526 22.8302 17.0947C22.8302 16.2807 22.6226 15.3649 22.3113 14.6526L22 14.0421Z" fill="white"/>
<path d="M31.5472 14.0421V24.3193C31.5472 26.0491 30.0943 27.4737 28.2264 27.4737H4.77358C3.00943 27.4737 1.45283 26.0491 1.45283 24.3193V14.0421H9.33962C8.92453 14.9579 8.71698 15.9754 8.71698 17.0947C8.71698 21.2667 12.2453 24.7263 16.5 24.7263C20.7547 24.7263 24.283 21.2667 24.283 17.0947C24.283 15.9754 24.0755 14.9579 23.6604 14.0421H31.5472Z" fill="white"/>
</svg>
