<svg width="30" height="30" viewBox="0 0 30 30" fill="none" xmlns="http://www.w3.org/2000/svg">
<path d="M25.5514 9.16004C25.3955 9.28096 22.644 10.8314 22.644 14.2788C22.644 18.2663 26.1452 19.677 26.25 19.712C26.2339 19.7979 25.6938 21.6439 24.404 23.5248C23.254 25.18 22.0529 26.8326 20.2257 26.8326C18.3985 26.8326 17.9283 25.7712 15.819 25.7712C13.7634 25.7712 13.0326 26.8675 11.3612 26.8675C9.68992 26.8675 8.52375 25.3359 7.18293 23.455C5.62984 21.2462 4.375 17.8149 4.375 14.5583C4.375 9.3347 7.77139 6.56438 11.114 6.56438C12.8902 6.56438 14.3707 7.73055 15.4858 7.73055C16.5472 7.73055 18.2024 6.49452 20.223 6.49452C20.9888 6.49452 23.7403 6.56438 25.5514 9.16004ZM19.2638 4.2831C20.0994 3.2916 20.6906 1.91584 20.6906 0.54009C20.6906 0.349312 20.6744 0.155847 20.6395 0C19.2799 0.0510533 17.6623 0.905525 16.6869 2.03676C15.9211 2.90735 15.2064 4.2831 15.2064 5.67767C15.2064 5.88725 15.2413 6.09684 15.2574 6.16402C15.3434 6.18014 15.4831 6.19895 15.6229 6.19895C16.8428 6.19895 18.377 5.38209 19.2638 4.2831Z" fill="black"/>
</svg>
