<svg width="24" height="24" viewBox="0 0 24 24" fill="none" xmlns="http://www.w3.org/2000/svg">
<path fill-rule="evenodd" clip-rule="evenodd" d="M1.93879 4.18934C2.22009 3.90804 2.60163 3.75 2.99945 3.75H7.49945C7.91366 3.75 8.24945 4.08579 8.24945 4.5V14.25C8.24945 14.6642 7.91366 15 7.49945 15H2.99945C2.60163 15 2.2201 14.842 1.93879 14.5607C1.65749 14.2794 1.49945 13.8978 1.49945 13.5V5.25C1.49945 4.85218 1.65749 4.47064 1.93879 4.18934ZM2.99945 5.25V13.5H6.74945V5.25L2.99945 5.25Z" fill="#3D444A"/>
<path fill-rule="evenodd" clip-rule="evenodd" d="M6.74943 4.5C6.74943 4.08579 7.08522 3.75 7.49943 3.75H18.9253C19.4737 3.75 20.0032 3.95029 20.4143 4.31322C20.8254 4.67616 21.0899 5.17675 21.1579 5.72092L22.2829 14.7209C22.3225 15.0375 22.2943 15.3589 22.2001 15.6637C22.106 15.9685 21.9482 16.2499 21.737 16.4891C21.5259 16.7282 21.2663 16.9198 20.9755 17.051C20.6847 17.1822 20.3693 17.25 20.0503 17.25H14.9994V18.75C14.9994 19.2425 14.9024 19.7301 14.714 20.1851C14.5255 20.64 14.2493 21.0534 13.9011 21.4016C13.5529 21.7499 13.1395 22.0261 12.6845 22.2145C12.2295 22.403 11.7419 22.5 11.2494 22.5C10.9654 22.5 10.7057 22.3395 10.5786 22.0854L6.82861 14.5854C6.64337 14.2149 6.79354 13.7644 7.16402 13.5792C7.53451 13.3939 7.98501 13.5441 8.17025 13.9146L11.6911 20.9562C11.8343 20.9276 11.9748 20.8849 12.1105 20.8287C12.3835 20.7157 12.6315 20.5499 12.8404 20.341C13.0494 20.1321 13.2151 19.884 13.3282 19.611C13.4412 19.3381 13.4994 19.0455 13.4994 18.75V16.5C13.4994 16.0858 13.8352 15.75 14.2494 15.75H20.0503C20.1566 15.75 20.2617 15.7274 20.3587 15.6837C20.4556 15.6399 20.5421 15.5761 20.6125 15.4964C20.6829 15.4166 20.7355 15.3228 20.7669 15.2212C20.7983 15.1196 20.8077 15.0125 20.7945 14.907L19.6695 5.90697C19.6468 5.72558 19.5587 5.55872 19.4216 5.43774C19.2846 5.31676 19.1081 5.25 18.9253 5.25H7.49943C7.08522 5.25 6.74943 4.91421 6.74943 4.5Z" fill="#3D444A"/>
</svg>
