<svg width="15" height="18" viewBox="0 0 15 18" fill="none" xmlns="http://www.w3.org/2000/svg">
<path d="M13.4211 16.3636H4.73684V4.90909H13.4211V16.3636ZM13.4211 3.27273H4.73684C4.31808 3.27273 3.91647 3.44513 3.62036 3.75201C3.32425 4.05888 3.15789 4.4751 3.15789 4.90909V16.3636C3.15789 16.7976 3.32425 17.2138 3.62036 17.5207C3.91647 17.8276 4.31808 18 4.73684 18H13.4211C13.8398 18 14.2414 17.8276 14.5375 17.5207C14.8336 17.2138 15 16.7976 15 16.3636V4.90909C15 4.4751 14.8336 4.05888 14.5375 3.75201C14.2414 3.44513 13.8398 3.27273 13.4211 3.27273ZM11.0526 0H1.57895C1.16018 0 0.758573 0.172402 0.462463 0.47928C0.166353 0.786158 0 1.20237 0 1.63636V13.0909H1.57895V1.63636H11.0526V0Z" fill="#4979F5"/>
</svg>
