<svg width="27" height="25" viewBox="0 0 27 25" fill="none" xmlns="http://www.w3.org/2000/svg">
<path d="M11.3488 21.3451H15.9248C15.9248 22.4708 14.8952 23.3919 13.6368 23.3919C12.3784 23.3919 11.3488 22.4708 11.3488 21.3451ZM23.9328 19.2983V20.3217H3.34082V19.2983L5.62882 17.2515V11.1112C5.62882 7.93865 7.91682 5.17549 11.3488 4.25444V3.94742C11.3488 2.82169 12.3784 1.90063 13.6368 1.90063C14.8952 1.90063 15.9248 2.82169 15.9248 3.94742V4.25444C19.3568 5.17549 21.6448 7.93865 21.6448 11.1112V17.2515L23.9328 19.2983ZM19.3568 11.1112C19.3568 8.24566 16.84 5.9942 13.6368 5.9942C10.4336 5.9942 7.91682 8.24566 7.91682 11.1112V18.2749H19.3568V11.1112Z" fill="#888888"/>
</svg>
