<svg width="30" height="30" viewBox="0 0 30 30" fill="none" xmlns="http://www.w3.org/2000/svg">
<path d="M15 3.125C11.8506 3.125 8.8301 4.37611 6.60311 6.60311C4.37611 8.8301 3.125 11.8506 3.125 15C3.125 18.1494 4.37611 21.1699 6.60311 23.3969C8.8301 25.6239 11.8506 26.875 15 26.875C18.1494 26.875 21.1699 25.6239 23.3969 23.3969C25.6239 21.1699 26.875 18.1494 26.875 15C26.875 11.8506 25.6239 8.8301 23.3969 6.60311C21.1699 4.37611 18.1494 3.125 15 3.125Z" fill="#039BE5"/>
<path d="M16.6075 18.1475H19.6806L20.1631 15.0256H16.6069V13.3194C16.6069 12.0225 17.0306 10.8725 18.2438 10.8725H20.1931V8.14811C19.8506 8.10186 19.1263 8.00061 17.7575 8.00061C14.8994 8.00061 13.2238 9.50999 13.2238 12.9487V15.0256H10.2856V18.1475H13.2238V26.7281C13.8056 26.8156 14.395 26.875 15 26.875C15.5469 26.875 16.0806 26.825 16.6075 26.7537V18.1475Z" fill="white"/>
</svg>
