<svg width="173" height="121" viewBox="0 0 173 121" fill="none" xmlns="http://www.w3.org/2000/svg">
<path d="M61.7211 92.2526C58.8075 87.6397 56.505 82.6034 54.9282 77.2584C53.3359 71.8605 52.4813 66.1534 52.4813 60.2551C52.4813 43.6857 59.1976 28.6851 70.0562 17.8265C80.9144 6.9683 95.9153 0.251709 112.484 0.251709C129.054 0.251709 144.054 6.96793 154.913 17.8265C165.771 28.6851 172.488 43.6857 172.488 60.2551C172.488 76.8242 165.771 91.8251 154.913 102.684C144.054 113.542 129.054 120.258 112.484 120.258C105.317 120.258 98.4362 118.997 92.0515 116.685C85.9842 114.488 80.3739 111.341 75.4 107.426L69.7825 120.258H50.6033L0.52301 5.86128H20.8448L60.1927 95.7434L61.7211 92.2526ZM116.64 56.0995C115.577 55.0363 114.107 54.3783 112.484 54.3783C110.862 54.3783 109.392 55.0363 108.329 56.0995C107.266 57.1627 106.608 58.6322 106.608 60.2551C106.608 61.878 107.266 63.3471 108.329 64.4107C109.392 65.4739 110.862 66.1319 112.484 66.1319C114.107 66.1319 115.577 65.4739 116.64 64.4107C117.703 63.3471 118.361 61.878 118.361 60.2551C118.361 58.6322 117.703 57.1627 116.64 56.0995ZM94.9564 16.3336C89.3748 18.5628 84.3182 21.8253 80.022 25.8841L87.5013 33.363L94.9564 16.3336ZM144.913 25.852C136.734 18.1395 125.805 13.3111 113.751 12.9936V51.863C115.104 52.0652 116.352 52.5872 117.416 53.3488L144.913 25.852ZM159.741 58.8533C159.39 46.7879 154.519 35.8564 146.762 27.693L119.281 55.1735C120.076 56.2352 120.628 57.4893 120.855 58.8533H159.741ZM146.856 92.7171C154.6 84.5208 159.444 73.556 159.747 61.4627H120.885C120.687 62.8539 120.151 64.1367 119.363 65.2248L146.856 92.7171ZM113.752 107.516C125.854 107.198 136.823 102.331 145.013 94.5638L117.529 67.0794C116.44 67.8856 115.152 68.437 113.752 68.6468V107.516ZM81.9174 92.5383L80.7189 95.2762C84.8874 99.0596 89.7297 102.108 95.0418 104.217C100.041 106.202 105.467 107.358 111.153 107.515L111.152 68.637C109.762 68.4178 108.483 67.8606 107.404 67.0522L81.9174 92.5383ZM95.5211 61.4634L84.7906 85.9756L105.578 65.1874C104.806 64.1072 104.28 62.8384 104.084 61.4634H95.5211ZM100.512 50.0636L96.6636 58.854H104.113C104.338 57.5059 104.88 56.2651 105.66 55.2113L100.512 50.0636ZM111.152 25.7578L101.635 47.4973L107.514 53.3764C108.57 52.6121 109.809 52.0849 111.152 51.8733L111.152 25.7578ZM75.1993 61.4638H65.2217C65.2977 64.5079 65.6606 67.4774 66.2842 70.3468C66.7952 72.6977 67.4789 74.9794 68.3206 77.1776L75.1993 61.4638ZM65.2274 58.8548H76.3419L86.3777 35.9293L78.1753 27.727C70.4367 35.887 65.5782 46.8053 65.2274 58.8548Z" fill="#2B2A29"/>
</svg>
