<svg width="24" height="24" viewBox="0 0 24 24" fill="none" xmlns="http://www.w3.org/2000/svg">
<path d="M7.49945 14.25L11.2495 21.75C11.6434 21.75 12.0335 21.6724 12.3975 21.5216C12.7615 21.3709 13.0922 21.1499 13.3708 20.8713C13.6493 20.5927 13.8703 20.262 14.0211 19.8981C14.1719 19.5341 14.2495 19.144 14.2495 18.75V16.5H20.0503C20.263 16.5 20.4732 16.4548 20.6671 16.3673C20.861 16.2798 21.034 16.1522 21.1748 15.9927C21.3156 15.8333 21.4208 15.6457 21.4835 15.4425C21.5463 15.2392 21.5651 15.025 21.5387 14.8139L20.4137 5.81395C20.3683 5.45117 20.1921 5.11744 19.918 4.87548C19.6439 4.63353 19.2909 4.5 18.9253 4.5H7.49945" fill="#002C51"/>
<path d="M7.49945 14.25L11.2495 21.75C11.6434 21.75 12.0335 21.6724 12.3975 21.5216C12.7615 21.3709 13.0922 21.1499 13.3708 20.8713C13.6493 20.5927 13.8703 20.262 14.0211 19.898C14.1719 19.5341 14.2495 19.144 14.2495 18.75V16.5H20.0503C20.263 16.5 20.4732 16.4548 20.6671 16.3673C20.861 16.2798 21.034 16.1522 21.1748 15.9927C21.3156 15.8333 21.4208 15.6457 21.4835 15.4425C21.5463 15.2392 21.5651 15.025 21.5387 14.8139L20.4137 5.81395C20.3683 5.45117 20.1921 5.11744 19.918 4.87548C19.6439 4.63353 19.2909 4.5 18.9253 4.5H7.49945" stroke="#002C51" stroke-width="1.5" stroke-linecap="round" stroke-linejoin="round"/>
<path fill-rule="evenodd" clip-rule="evenodd" d="M2.99945 3.75C2.60163 3.75 2.22009 3.90804 1.93879 4.18934C1.65749 4.47064 1.49945 4.85218 1.49945 5.25V13.5C1.49945 13.8978 1.65749 14.2794 1.93879 14.5607C2.2201 14.842 2.60163 15 2.99945 15H7.03591L10.5786 22.0854C10.7057 22.3395 10.9654 22.5 11.2494 22.5C11.7419 22.5 12.2295 22.403 12.6845 22.2145C13.1395 22.0261 13.5529 21.7499 13.9011 21.4016C14.2493 21.0534 14.5255 20.64 14.714 20.1851C14.9024 19.7301 14.9994 19.2425 14.9994 18.75V17.25H20.0503C20.3693 17.25 20.6847 17.1822 20.9755 17.051C21.2663 16.9198 21.5259 16.7282 21.737 16.4891C21.9482 16.2499 22.106 15.9685 22.2001 15.6637C22.2943 15.3589 22.3225 15.0375 22.2829 14.7209L21.1579 5.72092C21.0899 5.17675 20.8254 4.67616 20.4143 4.31322C20.0032 3.95029 19.4737 3.75 18.9253 3.75H7.49945H7.49943H2.99945ZM8.24945 5.25V14.073L11.6911 20.9562C11.8343 20.9276 11.9748 20.8849 12.1105 20.8287C12.3835 20.7157 12.6315 20.5499 12.8404 20.341C13.0494 20.1321 13.2151 19.884 13.3282 19.611C13.4412 19.3381 13.4994 19.0455 13.4994 18.75V16.5C13.4994 16.0858 13.8352 15.75 14.2494 15.75H20.0503C20.1566 15.75 20.2617 15.7274 20.3587 15.6837C20.4556 15.6399 20.5421 15.5761 20.6125 15.4964C20.6829 15.4166 20.7355 15.3228 20.7669 15.2212C20.7983 15.1196 20.8077 15.0125 20.7945 14.907L19.6695 5.90697C19.6468 5.72558 19.5587 5.55872 19.4216 5.43774C19.2846 5.31676 19.1081 5.25 18.9253 5.25H8.24945ZM2.99945 13.5V5.25L6.74945 5.25V13.5H2.99945Z" fill="#002C51"/>
</svg>
