<svg width="27" height="25" viewBox="0 0 27 25" fill="none" xmlns="http://www.w3.org/2000/svg">
<path d="M13.7 3.33337C7.64995 3.33337 2.69995 7.31115 2.69995 12.2223C2.72757 13.403 3.01304 14.5631 3.53596 15.6195C4.05889 16.6759 4.80635 17.6026 5.72495 18.3334C5.72495 19 5.26295 20.7445 2.69995 23.3334C5.30695 23.2112 7.80395 22.2223 9.81695 20.5556C11.071 20.9223 12.391 21.1112 13.7 21.1112C19.75 21.1112 24.7 17.1334 24.7 12.2223C24.7 7.31115 19.75 3.33337 13.7 3.33337ZM13.7 18.8889C8.83795 18.8889 4.89995 15.9 4.89995 12.2223C4.89995 8.54449 8.83795 5.5556 13.7 5.5556C18.562 5.5556 22.5 8.54449 22.5 12.2223C22.5 15.9 18.562 18.8889 13.7 18.8889Z" fill="#4979F5"/>
</svg>
