<svg width="27" height="25" viewBox="0 0 27 25" fill="none" xmlns="http://www.w3.org/2000/svg">
<path d="M17.7263 13.5965C17.7263 13.0846 17.9428 12.5938 18.328 12.2319C18.7133 11.8699 19.2358 11.6666 19.7807 11.6666C20.3256 11.6666 20.8481 11.8699 21.2334 12.2319C21.6187 12.5938 21.8351 13.0846 21.8351 13.5965C21.8351 14.1083 21.6187 14.5991 21.2334 14.961C20.8481 15.323 20.3256 15.5263 19.7807 15.5263C19.2358 15.5263 18.7133 15.323 18.328 14.961C17.9428 14.5991 17.7263 14.1083 17.7263 13.5965ZM11.5631 13.5965C11.5631 13.0846 11.7796 12.5938 12.1648 12.2319C12.5501 11.8699 13.0726 11.6666 13.6175 11.6666C14.1624 11.6666 14.6849 11.8699 15.0702 12.2319C15.4555 12.5938 15.6719 13.0846 15.6719 13.5965C15.6719 14.1083 15.4555 14.5991 15.0702 14.961C14.6849 15.323 14.1624 15.5263 13.6175 15.5263C13.0726 15.5263 12.5501 15.323 12.1648 14.961C11.7796 14.5991 11.5631 14.1083 11.5631 13.5965ZM5.3999 13.5965C5.3999 13.0846 5.61635 12.5938 6.00162 12.2319C6.3869 11.8699 6.90944 11.6666 7.4543 11.6666C7.99916 11.6666 8.52171 11.8699 8.90698 12.2319C9.29226 12.5938 9.5087 13.0846 9.5087 13.5965C9.5087 14.1083 9.29226 14.5991 8.90698 14.961C8.52171 15.323 7.99916 15.5263 7.4543 15.5263C6.90944 15.5263 6.3869 15.323 6.00162 14.961C5.61635 14.5991 5.3999 14.1083 5.3999 13.5965Z" fill="#B4B4B4"/>
</svg>
