<svg width="24" height="24" viewBox="0 0 24 24" fill="none" xmlns="http://www.w3.org/2000/svg">
<path d="M9.6076 20.5866H14.0006C14.0006 21.6673 13.0121 22.5515 11.8041 22.5515C10.596 22.5515 9.6076 21.6673 9.6076 20.5866ZM21.6882 18.6217V19.6041H1.91992V18.6217L4.1164 16.6568V10.762C4.1164 7.71641 6.31288 5.06378 9.6076 4.17957V3.88483C9.6076 2.80413 10.596 1.91992 11.8041 1.91992C13.0121 1.91992 14.0006 2.80413 14.0006 3.88483V4.17957C17.2953 5.06378 19.4918 7.71641 19.4918 10.762V16.6568L21.6882 18.6217ZM17.2953 10.762C17.2953 8.01115 14.8792 5.84975 11.8041 5.84975C8.72901 5.84975 6.31288 8.01115 6.31288 10.762V17.6392H17.2953V10.762Z" fill="#B4B4B4"/>
</svg>
