<svg width="80" height="80" viewBox="0 0 80 80" fill="none" xmlns="http://www.w3.org/2000/svg">
<rect width="80" height="80" rx="40" fill="#818181"/>
<path d="M37.3855 12.1749C31.3918 13.1812 26.3824 18.2343 25.398 24.2499C25.1902 25.5843 25.1902 27.9468 25.398 29.2812C26.3824 35.3515 31.4137 40.3827 37.484 41.3671C38.8184 41.5749 41.1809 41.5749 42.5152 41.3671C48.5855 40.3827 53.6168 35.3515 54.6012 29.2812C54.809 27.9468 54.809 25.5843 54.6012 24.2499C53.6168 18.1796 48.5855 13.1483 42.5152 12.164C41.2355 11.9562 38.6434 11.9671 37.3855 12.1749Z" fill="#393939"/>
<path d="M33.6016 44.9875C27.3125 45.9828 21.9203 49.5703 18.5406 55.0172C16.5719 58.1672 15.3906 62.2141 15.3906 65.7359C15.3906 67.0813 15.5 67.3875 16.1125 67.7922C16.4187 67.9891 17.0969 68 40 68C62.9031 68 63.5813 67.9891 63.8875 67.7922C64.5 67.3875 64.6094 67.0813 64.6094 65.7141C64.6094 60.3438 62.1047 54.6781 57.9703 50.7188C54.9406 47.8094 51.5719 46.0484 47.2625 45.1188C46.2453 44.9 45.8297 44.8891 40.3828 44.8563C35.7781 44.8344 34.3781 44.8563 33.6016 44.9875Z" fill="#393939"/>
</svg>
