<svg width="24" height="24" viewBox="0 0 24 24" fill="none" xmlns="http://www.w3.org/2000/svg">
<path fill-rule="evenodd" clip-rule="evenodd" d="M1.93879 9.43934C2.22009 9.15804 2.60163 9 2.99945 9H7.49945C7.91366 9 8.24945 9.33579 8.24945 9.75V19.5C8.24945 19.9142 7.91366 20.25 7.49945 20.25H2.99945C2.60163 20.25 2.2201 20.092 1.93879 19.8107C1.65749 19.5294 1.49945 19.1478 1.49945 18.75V10.5C1.49945 10.1022 1.65749 9.72064 1.93879 9.43934ZM2.99945 10.5V18.75H6.74945V10.5L2.99945 10.5Z" fill="#3D444A"/>
<path fill-rule="evenodd" clip-rule="evenodd" d="M10.5786 1.91459C10.7057 1.6605 10.9654 1.5 11.2494 1.5C11.7419 1.5 12.2295 1.597 12.6845 1.78545C13.1395 1.97391 13.5529 2.25013 13.9011 2.59835C14.2493 2.94657 14.5255 3.35997 14.714 3.81494C14.9024 4.26991 14.9994 4.75754 14.9994 5.25V6.75H20.0503C20.3693 6.75 20.6847 6.81785 20.9755 6.94904C21.2663 7.08023 21.5259 7.27177 21.737 7.51094C21.9482 7.75012 22.106 8.03146 22.2001 8.3363C22.2943 8.64114 22.3225 8.96251 22.2829 9.27908L21.1579 18.2791C21.0899 18.8232 20.8254 19.3238 20.4143 19.6868C20.0032 20.0497 19.4737 20.25 18.9253 20.25H7.49943C7.08522 20.25 6.74943 19.9142 6.74943 19.5C6.74943 19.0858 7.08522 18.75 7.49943 18.75H18.9253C19.1081 18.75 19.2846 18.6832 19.4216 18.5623C19.5587 18.4413 19.6468 18.2744 19.6695 18.093L20.7945 9.09303C20.8077 8.9875 20.7983 8.88038 20.7669 8.77877C20.7355 8.67715 20.6829 8.58337 20.6125 8.50365C20.5421 8.42392 20.4556 8.36008 20.3587 8.31635C20.2617 8.27262 20.1566 8.25 20.0503 8.25H14.2494C13.8352 8.25 13.4994 7.91421 13.4994 7.5V5.25C13.4994 4.95453 13.4412 4.66194 13.3282 4.38896C13.2151 4.11598 13.0494 3.86794 12.8404 3.65901C12.6315 3.45008 12.3835 3.28434 12.1105 3.17127C11.9748 3.11509 11.8343 3.07245 11.6911 3.04377L8.17025 10.0854C7.98501 10.4559 7.53451 10.6061 7.16402 10.4208C6.79354 10.2356 6.64337 9.78507 6.82861 9.41459L10.5786 1.91459Z" fill="#3D444A"/>
</svg>
