<svg width="24" height="23" viewBox="0 0 24 23" fill="none" xmlns="http://www.w3.org/2000/svg">
<g filter="url(#filter0_d_3283_3950)">
<path d="M21.6632 18.1599L17.6571 14.1538C17.4763 13.973 17.2312 13.8726 16.9741 13.8726H16.3191C17.4281 12.4542 18.0871 10.6701 18.0871 8.72934C18.0871 4.11248 14.3462 0.371582 9.72934 0.371582C5.11248 0.371582 1.37158 4.11248 1.37158 8.72934C1.37158 13.3462 5.11248 17.0871 9.72934 17.0871C11.6701 17.0871 13.4542 16.4281 14.8726 15.3191V15.9741C14.8726 16.2312 14.973 16.4763 15.1538 16.6571L19.1599 20.6632C19.5376 21.0409 20.1484 21.0409 20.5221 20.6632L21.6592 19.5261C22.0369 19.1484 22.0369 18.5376 21.6632 18.1599ZM9.72934 13.8726C6.8885 13.8726 4.5861 11.5742 4.5861 8.72934C4.5861 5.8885 6.88449 3.5861 9.72934 3.5861C12.5702 3.5861 14.8726 5.88448 14.8726 8.72934C14.8726 11.5702 12.5742 13.8726 9.72934 13.8726Z" fill="#B4B4B4"/>
</g>
<defs>
<filter id="filter0_d_3283_3950" x="-2.62842" y="0.371582" width="28.5713" height="28.5747" filterUnits="userSpaceOnUse" color-interpolation-filters="sRGB">
<feFlood flood-opacity="0" result="BackgroundImageFix"/>
<feColorMatrix in="SourceAlpha" type="matrix" values="0 0 0 0 0 0 0 0 0 0 0 0 0 0 0 0 0 0 127 0" result="hardAlpha"/>
<feOffset dy="4"/>
<feGaussianBlur stdDeviation="2"/>
<feComposite in2="hardAlpha" operator="out"/>
<feColorMatrix type="matrix" values="0 0 0 0 0 0 0 0 0 0 0 0 0 0 0 0 0 0 0.25 0"/>
<feBlend mode="normal" in2="BackgroundImageFix" result="effect1_dropShadow_3283_3950"/>
<feBlend mode="normal" in="SourceGraphic" in2="effect1_dropShadow_3283_3950" result="shape"/>
</filter>
</defs>
</svg>
