<svg width="105" height="21" viewBox="0 0 105 21" fill="none" xmlns="http://www.w3.org/2000/svg">
<path d="M33.7806 5.99853C30.8926 5.99853 28.5332 8.05581 28.5332 10.8943C28.5332 13.7097 30.8926 15.7886 33.7806 15.7886C36.6749 15.7886 39.0342 13.7097 39.0342 10.8943C39.0342 8.05581 36.6749 5.99853 33.7806 5.99853ZM33.7806 13.8608C32.196 13.8608 30.8326 12.6365 30.8326 10.8943C30.8326 9.12905 32.196 7.92633 33.7806 7.92633C35.3653 7.92633 36.7348 9.12905 36.7348 10.8943C36.7348 12.6365 35.3653 13.8608 33.7806 13.8608ZM22.3313 5.99853C19.437 5.99853 17.0838 8.05581 17.0838 10.8943C17.0838 13.7097 19.437 15.7886 22.3313 15.7886C25.224 15.7886 27.5787 13.7097 27.5787 10.8943C27.5787 8.05581 25.224 5.99853 22.3313 5.99853ZM22.3313 13.8608C20.745 13.8608 19.3771 12.6365 19.3771 10.8943C19.3771 9.12905 20.745 7.92633 22.3313 7.92633C23.916 7.92633 25.2793 9.12905 25.2793 10.8943C25.2793 12.6365 23.916 13.8608 22.3313 13.8608ZM8.70699 7.49905V9.57935H14.0144C13.8591 10.7418 13.4441 11.5964 12.8078 12.192C12.0331 12.9113 10.8266 13.7097 8.70699 13.7097C5.44079 13.7097 2.88316 11.2424 2.88316 8.18529C2.88316 5.12814 5.44079 2.66083 8.70699 2.66083C10.473 2.66083 11.758 3.30679 12.7064 4.14409L14.2726 2.6781C12.9461 1.49264 11.1816 0.581968 8.70699 0.581968C4.22807 0.581968 0.463867 3.99303 0.463867 8.18529C0.463867 12.3775 4.22807 15.7886 8.70699 15.7886C11.1278 15.7886 12.9461 15.0463 14.3756 13.6536C15.8404 12.2826 16.2969 10.3548 16.2969 8.79816C16.2969 8.31477 16.2538 7.87022 16.177 7.49905H8.70699ZM64.4184 9.11179C63.9865 8.01697 62.6539 5.99853 59.9395 5.99853C57.2496 5.99853 55.0102 7.98244 55.0102 10.8943C55.0102 13.6364 57.2266 15.7886 60.1977 15.7886C62.6001 15.7886 63.9865 14.4176 64.5567 13.6191L62.7738 12.507C62.1789 13.3213 61.3689 13.8608 60.1977 13.8608C59.0341 13.8608 58.1995 13.3616 57.6646 12.3775L64.6597 9.66855L64.4184 9.11179ZM57.2865 10.7418C57.2266 8.85426 58.8528 7.88749 60.0179 7.88749C60.9309 7.88749 61.7055 8.31477 61.9637 8.9262L57.2865 10.7418ZM51.601 15.4908H53.9004V1.1042H51.601V15.4908ZM47.8353 7.08903H47.7584C47.242 6.51644 46.2568 5.99853 45.0087 5.99853C42.3896 5.99853 39.9949 8.15076 39.9949 10.9101C39.9949 13.6536 42.3896 15.7886 45.0087 15.7886C46.2568 15.7886 47.242 15.2664 47.7584 14.6765H47.8353V15.3786C47.8353 17.2503 46.7671 18.2559 45.044 18.2559C43.6392 18.2559 42.7677 17.3064 42.408 16.5079L40.4083 17.2891C40.9847 18.5868 42.511 20.1837 45.044 20.1837C47.74 20.1837 50.0148 18.699 50.0148 15.0865V6.29633H47.8353V7.08903ZM45.2054 13.8608C43.6208 13.8608 42.2943 12.6192 42.2943 10.9101C42.2943 9.18516 43.6208 7.92633 45.2054 7.92633C46.7671 7.92633 47.9982 9.18516 47.9982 10.9101C47.9982 12.6192 46.7671 13.8608 45.2054 13.8608ZM75.1838 1.1042H69.6843V15.4908H71.9775V10.0397H75.1838C77.7306 10.0397 80.2283 8.31477 80.2283 5.57124C80.2283 2.82916 77.7245 1.1042 75.1838 1.1042ZM75.2437 8.03855H71.9775V3.10538H75.2437C76.956 3.10538 77.9335 4.43614 77.9335 5.57124C77.9335 6.68477 76.956 8.03855 75.2437 8.03855ZM89.4198 5.97119C87.7629 5.97119 86.0399 6.65599 85.3313 8.17378L87.3663 8.97224C87.8044 8.17378 88.6098 7.91482 89.4613 7.91482C90.651 7.91482 91.8575 8.5838 91.876 9.76494V9.916C91.461 9.69157 90.5726 9.35924 89.4797 9.35924C87.2879 9.35924 85.0546 10.4886 85.0546 12.5962C85.0546 14.524 86.8499 15.7656 88.868 15.7656C90.4112 15.7656 91.2627 15.1139 91.7976 14.3557H91.876V15.4678H94.0909V9.94909C94.0909 7.39834 92.0558 5.97119 89.4198 5.97119ZM89.1431 13.8551C88.3931 13.8551 87.3479 13.5069 87.3479 12.6365C87.3479 11.523 88.6513 11.0957 89.7795 11.0957C90.7893 11.0957 91.2627 11.3043 91.876 11.5791C91.6961 12.9113 90.4711 13.8551 89.1431 13.8551ZM102.16 6.28626L99.5243 12.5229H99.4459L96.7207 6.28626H94.2476L98.3423 15.0017L96.006 19.8514H98.4022L104.712 6.28626H102.16ZM81.4887 15.4908H83.7881V1.1042H81.4887V15.4908Z" fill="white"/>
</svg>
