<svg width="24" height="24" viewBox="0 0 24 24" fill="none" xmlns="http://www.w3.org/2000/svg">
<path d="M14.9971 4C14.1443 4.05899 13.1474 4.60488 12.5666 5.31575C12.0367 5.96062 11.6007 6.91844 11.7707 7.84926C12.7025 7.87825 13.6653 7.31936 14.2232 6.5965C14.7451 5.92363 15.1401 4.97181 14.9971 4Z" fill="white"/>
<path d="M18.3671 9.36683C17.5483 8.34003 16.3975 7.74414 15.3107 7.74414C13.876 7.74414 13.2691 8.43101 12.2723 8.43101C11.2445 8.43101 10.4636 7.74614 9.22286 7.74614C8.00409 7.74614 6.70634 8.491 5.8835 9.76475C4.72673 11.5584 4.92469 14.9308 6.79933 17.8032C7.4702 18.831 8.36602 19.9868 9.5378 19.9968C10.5806 20.0068 10.8745 19.3279 12.2873 19.3209C13.7 19.3129 13.9679 20.0058 15.0087 19.9948C16.1815 19.9858 17.1263 18.705 17.7972 17.6772C18.2781 16.9404 18.4571 16.5694 18.83 15.7376C16.1175 14.7048 15.6826 10.8475 18.3671 9.36683Z" fill="white"/>
</svg>
