<svg width="24" height="24" viewBox="0 0 24 24" fill="none" xmlns="http://www.w3.org/2000/svg">
<path d="M7.54594 13.6689L6.989 15.7481L4.95341 15.7911C4.34506 14.6628 4 13.3718 4 11.9999C4 10.6733 4.32263 9.42233 4.8945 8.3208H4.89494L6.70719 8.65305L7.50106 10.4544C7.33491 10.9388 7.24434 11.4588 7.24434 11.9999C7.24441 12.5872 7.35078 13.1498 7.54594 13.6689Z" fill="#FBBB00"/>
<path d="M19.8601 10.5059C19.952 10.9898 19.9999 11.4896 19.9999 12.0004C19.9999 12.5731 19.9397 13.1318 19.825 13.6707C19.4355 15.5045 18.4179 17.1059 17.0083 18.239L17.0078 18.2386L14.7252 18.1221L14.4022 16.1054C15.3375 15.5569 16.0685 14.6984 16.4536 13.6707H12.1758V10.5059H16.516H19.8601Z" fill="#518EF8"/>
<path d="M17.0076 18.2382L17.0081 18.2386C15.6371 19.3406 13.8955 19.9999 11.9997 19.9999C8.95312 19.9999 6.30434 18.2971 4.95312 15.7911L7.54566 13.6689C8.22125 15.472 9.96059 16.7555 11.9997 16.7555C12.8762 16.7555 13.6973 16.5186 14.4019 16.105L17.0076 18.2382Z" fill="#28B446"/>
<path d="M17.1064 5.84175L14.5148 7.9635C13.7855 7.50769 12.9235 7.24437 12 7.24437C9.91475 7.24437 8.14288 8.58678 7.50113 10.4545L4.89497 8.32088H4.89453C6.22597 5.75384 8.90816 4 12 4C13.9411 4 15.7209 4.69144 17.1064 5.84175Z" fill="#F14336"/>
</svg>
