<svg width="81" height="58" viewBox="0 0 81 58" fill="none" xmlns="http://www.w3.org/2000/svg">
<path d="M43.0241 9.02677C43.0241 7.28876 43.5435 5.58979 44.5167 4.14469C45.4899 2.69959 46.8731 1.57328 48.4914 0.908171C50.1098 0.243065 51.8906 0.0690434 53.6086 0.408111C55.3266 0.747179 56.9048 1.58411 58.1434 2.81306C59.382 4.04202 60.2255 5.6078 60.5673 7.31241C60.909 9.01702 60.7336 10.7839 60.0633 12.3896C59.3929 13.9953 58.2578 15.3677 56.8013 16.3333C55.3448 17.2989 53.6324 17.8143 51.8808 17.8143C49.5318 17.8143 47.2791 16.8884 45.6181 15.2405C43.9572 13.5925 43.0241 11.3574 43.0241 9.02677ZM80.665 56.7304C80.4423 57.1131 80.1218 57.4307 79.7358 57.6511C79.3498 57.8715 78.912 57.9869 78.4667 57.9857H2.5363C2.09034 57.9856 1.65233 57.8684 1.26667 57.6462C0.880997 57.4241 0.561361 57.1047 0.340133 56.7205C0.118904 56.3363 0.0039425 55.9009 0.00689127 55.4584C0.00984004 55.0159 0.130595 54.5821 0.356924 54.2008L23.4792 15.2659C23.9262 14.5122 24.5637 13.8875 25.3288 13.4534C26.0938 13.0193 26.9598 12.7909 27.8412 12.7909C28.7225 12.7909 29.5885 13.0193 30.3536 13.4534C31.1186 13.8875 31.7561 14.5122 32.2031 15.2659L46.3864 39.1554L54.6611 25.3025C55.1047 24.5485 55.7403 23.9237 56.5043 23.4907C57.2683 23.0577 58.1337 22.8318 59.0136 22.8357C59.8932 22.8312 60.7586 23.0562 61.523 23.488C62.2874 23.9198 62.9241 24.5434 63.3692 25.2962L80.6271 54.1945C80.8597 54.5758 80.9858 55.0117 80.9925 55.4574C80.9991 55.903 80.8861 56.3424 80.665 56.7304ZM20.3857 30.3679H35.2966L27.8412 17.8143L20.3857 30.3679Z" fill="#EEF4FF"/>
</svg>
