<svg width="27" height="25" viewBox="0 0 27 25" fill="none" xmlns="http://www.w3.org/2000/svg">
    <path
        d="M23.7723 16.4238C22.5022 15.1845 20.9716 14.1973 19.2742 13.5226C17.5768 12.848 15.7481 12.5 13.9 12.5C12.052 12.5 10.2233 12.848 8.52591 13.5226C6.82847 14.1973 5.2979 15.1845 4.02778 16.4238C3.75241 16.6953 3.59947 17.0536 3.6001 17.4255V21.2716C3.6001 21.6594 3.76698 22.0314 4.06404 22.3056C4.3611 22.5798 4.764 22.7339 5.1841 22.7339H22.6081C23.0282 22.7339 23.4311 22.5798 23.7281 22.3056C24.0252 22.0314 24.1921 21.6594 24.1921 21.2716V17.4255C24.1949 17.0546 24.0448 16.6965 23.7723 16.4238ZM22.1441 21.0283H5.54696V17.3626C6.6694 16.2714 7.79698 15.8617 9.29471 15.2679C10.7924 14.6742 12.2701 14.2206 13.9 14.2206C15.53 14.2206 16.8987 14.6742 18.3964 15.2679C19.8941 15.8617 21.0217 16.3271 22.1441 17.4182V21.0283Z"
        fill="#535353" />
    <circle cx="14" cy="7" r="4" stroke="#535353" stroke-width="2" />
</svg>
