<svg width="24" height="24" viewBox="0 0 24 24" fill="none" xmlns="http://www.w3.org/2000/svg">
<g clip-path="url(#clip0_616_5186)">
<path d="M23.4256 12.1814C23.4267 11.9903 23.3736 11.8027 23.2725 11.6408C23.1714 11.4789 23.0265 11.3494 22.8548 11.2674L1.78296 1.13203C1.59912 1.04671 1.3939 1.01969 1.19458 1.05456C0.995254 1.08942 0.811248 1.18453 0.667 1.32723C0.522752 1.46994 0.42509 1.6535 0.386984 1.85353C0.348879 2.05356 0.372133 2.2606 0.453659 2.44714L0.309151 10.6871L12.9729 11.7238L0.364105 12.7091L0.277653 21.5064C0.197209 21.6903 0.173509 21.8944 0.209619 22.0922C0.24573 22.29 0.339987 22.4724 0.480184 22.6157C0.624451 22.7576 0.807986 22.8522 1.00659 22.887C1.2052 22.9218 1.40956 22.8952 1.59272 22.8107L22.8261 13.0703C22.9995 12.9947 23.1479 12.871 23.2541 12.7136C23.3602 12.5562 23.4197 12.3717 23.4256 12.1814Z" fill="#557CE1"/>
</g>
<defs>
<clipPath id="clip0_616_5186">
<rect width="24" height="24" fill="white"/>
</clipPath>
</defs>
</svg>
