<svg width="24" height="24" viewBox="0 0 24 24" fill="none" xmlns="http://www.w3.org/2000/svg">
<path d="M22 19.0668L21.7718 18.8612C21.1245 18.272 20.5578 17.5964 20.0872 16.8526C19.5733 15.8261 19.2653 14.705 19.1812 13.5553V10.1688C19.1857 8.36289 18.5443 6.61746 17.3777 5.26048C16.211 3.90349 14.5994 3.02835 12.8456 2.79949V1.91517C12.8456 1.67245 12.7512 1.43967 12.5832 1.26805C12.4152 1.09642 12.1873 1 11.9497 1C11.712 1 11.4841 1.09642 11.3161 1.26805C11.1481 1.43967 11.0537 1.67245 11.0537 1.91517V2.8132C9.31561 3.05856 7.72347 3.93899 6.57217 5.29142C5.42086 6.64384 4.78841 8.37662 4.79195 10.1688V13.5553C4.70789 14.705 4.39985 15.8261 3.88591 16.8526C3.42341 17.5946 2.8659 18.2701 2.22819 18.8612L2 19.0668V21H22V19.0668Z" fill="#666666"/>
<path d="M10 21C10.0585 21.4226 10.2679 21.8097 10.5895 22.09C10.9112 22.3702 11.3234 22.5246 11.75 22.5246C12.1766 22.5246 12.5888 22.3702 12.9105 22.09C13.2321 21.8097 13.4415 21.4226 13.5 21H10Z" fill="#666666"/>
</svg>
