<svg width="27" height="25" viewBox="0 0 27 25" fill="none" xmlns="http://www.w3.org/2000/svg">
<path fill-rule="evenodd" clip-rule="evenodd" d="M22.9534 10.192L15.5856 4.21122C14.9918 3.72925 14.1864 3.4585 13.3468 3.4585C12.5071 3.4585 11.7018 3.72925 11.1079 4.21122L3.95337 10.0197V22.4585H11.3423V17.3167C11.3423 16.8622 11.5647 16.4262 11.9606 16.1048C12.3565 15.7834 12.8935 15.6028 13.4534 15.6028C14.0133 15.6028 14.5502 15.7834 14.9461 16.1048C15.3421 16.4262 15.5645 16.8622 15.5645 17.3167V22.4585H22.9534V10.192ZM12.6005 5.42296L6.06448 10.7301V20.7446H9.23115V17.3167C9.23115 16.4076 9.67599 15.5357 10.4678 14.8929C11.2596 14.25 12.3336 13.8889 13.4534 13.8889C14.5732 13.8889 15.6471 14.25 16.4389 14.8929C17.2308 15.5357 17.6756 16.4076 17.6756 17.3167V20.7446H20.8423V10.9015L14.0941 5.4221C13.9961 5.34243 13.8796 5.27922 13.7515 5.23609C13.6234 5.19296 13.486 5.17077 13.3473 5.17077C13.2086 5.17077 13.0712 5.19296 12.9431 5.23609C12.8149 5.27922 12.6985 5.34243 12.6005 5.4221V5.42296Z" fill="#818181"/>
</svg>
