<svg width="24" height="24" viewBox="0 0 24 24" fill="none" xmlns="http://www.w3.org/2000/svg">
<path d="M7.49945 9.75L11.2495 2.25C11.6434 2.25 12.0335 2.3276 12.3975 2.47836C12.7615 2.62913 13.0922 2.8501 13.3708 3.12868C13.6493 3.40726 13.8703 3.73797 14.0211 4.10195C14.1719 4.46593 14.2495 4.85603 14.2495 5.25V7.5H20.0503C20.263 7.5 20.4732 7.54523 20.6671 7.63269C20.861 7.72016 21.034 7.84785 21.1748 8.0073C21.3156 8.16675 21.4208 8.35431 21.4835 8.55753C21.5463 8.76076 21.5651 8.975 21.5387 9.18605L20.4137 18.1861C20.3683 18.5488 20.1921 18.8826 19.918 19.1245C19.6439 19.3665 19.2909 19.5 18.9253 19.5H7.49945" fill="#002C51"/>
<path d="M7.49945 9.75L11.2495 2.25C11.6434 2.25 12.0335 2.3276 12.3975 2.47836C12.7615 2.62913 13.0922 2.8501 13.3708 3.12868C13.6493 3.40726 13.8703 3.73797 14.0211 4.10195C14.1719 4.46593 14.2495 4.85603 14.2495 5.25V7.5H20.0503C20.263 7.5 20.4732 7.54523 20.6671 7.63269C20.861 7.72016 21.034 7.84785 21.1748 8.0073C21.3156 8.16675 21.4208 8.35431 21.4835 8.55753C21.5463 8.76076 21.5651 8.975 21.5387 9.18605L20.4137 18.1861C20.3683 18.5488 20.1921 18.8826 19.918 19.1245C19.6439 19.3665 19.2909 19.5 18.9253 19.5H7.49945" stroke="#002C51" stroke-width="1.5" stroke-linecap="round" stroke-linejoin="round"/>
<path fill-rule="evenodd" clip-rule="evenodd" d="M11.2494 1.5C10.9654 1.5 10.7057 1.6605 10.5786 1.91459L7.03591 9H2.99945C2.60163 9 2.22009 9.15804 1.93879 9.43934C1.65749 9.72064 1.49945 10.1022 1.49945 10.5V18.75C1.49945 19.1478 1.65749 19.5294 1.93879 19.8107C2.2201 20.092 2.60163 20.25 2.99945 20.25H7.49943H7.49945H18.9253C19.4737 20.25 20.0032 20.0497 20.4143 19.6868C20.8254 19.3238 21.0899 18.8232 21.1579 18.2791L22.2829 9.27908C22.3225 8.96251 22.2943 8.64114 22.2001 8.3363C22.106 8.03146 21.9482 7.75012 21.737 7.51094C21.5259 7.27177 21.2663 7.08023 20.9755 6.94904C20.6847 6.81785 20.3693 6.75 20.0503 6.75H14.9994V5.25C14.9994 4.75754 14.9024 4.26991 14.714 3.81494C14.5255 3.35997 14.2493 2.94657 13.9011 2.59835C13.5529 2.25013 13.1395 1.97391 12.6845 1.78545C12.2295 1.597 11.7419 1.5 11.2494 1.5ZM8.24945 18.75H18.9253C19.1081 18.75 19.2846 18.6832 19.4216 18.5623C19.5587 18.4413 19.6468 18.2744 19.6695 18.093L20.7945 9.09303C20.8077 8.9875 20.7983 8.88038 20.7669 8.77877C20.7355 8.67715 20.6829 8.58337 20.6125 8.50365C20.5421 8.42392 20.4556 8.36008 20.3587 8.31635C20.2617 8.27262 20.1566 8.25 20.0503 8.25H14.2494C13.8352 8.25 13.4994 7.91421 13.4994 7.5V5.25C13.4994 4.95453 13.4412 4.66194 13.3282 4.38896C13.2151 4.11598 13.0494 3.86794 12.8404 3.65901C12.6315 3.45008 12.3835 3.28434 12.1105 3.17127C11.9748 3.11509 11.8343 3.07245 11.6911 3.04377L8.24945 9.92701V18.75ZM2.99945 18.75V10.5H6.74945V18.75H2.99945Z" fill="#3D444A"/>
</svg>
